<svg width="15" height="15" viewBox="0 0 15 15" fill="none" xmlns="http://www.w3.org/2000/svg">
<g clip-path="url(#clip0_2_12276)">
<path d="M1.3425 7.91418C1.11408 7.68572 1.11408 7.31397 1.34303 7.08502L6.4786 1.93677C6.70711 1.70767 6.70667 1.33665 6.47757 1.10811C6.24844 0.87959 5.87743 0.88003 5.64888 1.10913L0.513872 6.25683C-0.171528 6.94223 -0.171528 8.05747 0.513345 8.74234L5.64888 13.8905C5.76337 14.0053 5.91352 14.0627 6.06375 14.0627C6.21346 14.0627 6.36323 14.0056 6.47757 13.8915C6.70667 13.663 6.70714 13.292 6.4786 13.0629L1.3425 7.91418Z" fill="#3275BB"/>
<path d="M14.4137 6.91406H3.77835C3.45471 6.91406 3.19238 7.17639 3.19238 7.50003C3.19238 7.82367 3.45471 8.086 3.77835 8.086H14.4136C14.7373 8.086 14.9996 7.82367 14.9996 7.50003C14.9996 7.17639 14.7373 6.91406 14.4137 6.91406Z" fill="#3275BB"/>
</g>
<defs>
<clipPath id="clip0_2_12276">
<rect width="15" height="15" fill="white"/>
</clipPath>
</defs>
</svg>
