<svg width="20" height="20" viewBox="0 0 20 20" fill="none" xmlns="http://www.w3.org/2000/svg">
<g clip-path="url(#clip0)">
<path d="M17.1429 0C16.7484 0 16.4286 0.319796 16.4286 0.714299V3.32356C12.7512 -0.236719 6.88392 -0.141713 3.32364 3.53567C1.64576 5.26875 0.709727 7.58776 0.714373 9.99998C0.714373 10.3945 1.03417 10.7143 1.42867 10.7143C1.82318 10.7143 2.14293 10.3945 2.14293 9.99998C2.14381 5.66061 5.66224 2.14353 10.0016 2.1444C12.2055 2.14482 14.3078 3.07081 15.7958 4.69641L12.6315 5.75139C12.2568 5.87607 12.054 6.28091 12.1787 6.65566C12.3034 7.03041 12.7082 7.23318 13.083 7.1085L17.3687 5.67995C17.6612 5.58252 17.8582 5.3083 17.8573 4.99997V0.714257C17.8572 0.319796 17.5374 0 17.1429 0Z" fill="#A1A1A1"/>
<path d="M18.5715 9.28516C18.177 9.28516 17.8572 9.60495 17.8572 9.99946C17.8563 14.3388 14.3379 17.8559 9.99844 17.855C7.79461 17.8546 5.69231 16.9286 4.20428 15.303L7.36855 14.248C7.7433 14.1234 7.94607 13.7185 7.82139 13.3438C7.69671 12.969 7.29187 12.7663 6.91712 12.8909L2.63141 14.3195C2.33886 14.4169 2.14186 14.6911 2.14283 14.9995V19.2852C2.14283 19.6797 2.46262 19.9995 2.85712 19.9995C3.25163 19.9995 3.57142 19.6797 3.57142 19.2852V16.6759C7.24885 20.2362 13.1162 20.1412 16.6764 16.4638C18.3543 14.7307 19.2903 12.4117 19.2857 9.99946C19.2858 9.60495 18.966 9.28516 18.5715 9.28516Z" fill="#A1A1A1"/>
</g>
<defs>
<clipPath id="clip0">
<rect width="20" height="20" fill="white"/>
</clipPath>
</defs>
</svg>
